<svg width="12" height="12" viewBox="0 0 12 12" fill="none" xmlns="http://www.w3.org/2000/svg">
<path d="M8.192 10.656L8.128 6.88H3.936C3.91467 8.48 3.904 9.67467 3.904 10.464L5.008 10.608C5.008 11.0453 4.88533 11.5093 4.64 12H0.752L0.608 11.12C1.20533 10.8747 1.65333 10.72 1.952 10.656C1.952 10.624 1.904 7.80267 1.808 2.192L0.48 1.776L0.608 0.799999H4.752C4.92267 1.088 5.024 1.50933 5.056 2.064C4.512 2.14933 4.15467 2.20267 3.984 2.224C3.96267 3.61067 3.952 4.65067 3.952 5.344H8.096L8.048 2.192L6.72 1.776L6.848 0.799999H10.992C11.1627 1.088 11.264 1.50933 11.296 2.064C10.752 2.14933 10.3947 2.20267 10.224 2.224L10.144 10.464L11.248 10.608C11.248 11.0453 11.1253 11.5093 10.88 12H6.992L6.848 11.12C7.44533 10.8747 7.89333 10.72 8.192 10.656Z" fill="#A51C30"/>
</svg>
