<?xml version="1.0" encoding="UTF-8"?> <svg xmlns="http://www.w3.org/2000/svg" width="164" height="64" fill="none"><g clip-path="url(#a)"><g fill="#000"><path d="M71.471 0h15v2.96h-5.78v15.507h-3.44V2.96H71.5V0h-.029ZM91.686 7.133h.085c.902-1.41 2.227-2.255 4.088-2.255 2.848 0 4.567 1.748 4.567 4.623v8.994h-3.157v-8.458c0-1.55-.93-2.537-2.538-2.537-1.748 0-2.988 1.353-2.988 3.214v7.753h-3.158V0h3.158v4.962c-.028.367-.028 1.382-.057 2.171ZM102.513 11.871c0-3.947 2.65-6.992 6.569-6.992 1.945 0 3.44.677 4.567 1.86 1.297 1.354 1.918 3.44 1.889 5.893h-9.896c.226 2.284 1.438 3.835 3.637 3.835 1.523 0 2.51-.649 2.932-1.748h3.074c-.649 2.368-2.792 4.144-6.034 4.144-4.201 0-6.738-3.073-6.738-6.992Zm3.186-1.212h6.597c-.113-2.171-1.297-3.496-3.214-3.496-2.058-.029-3.101 1.41-3.383 3.496ZM72.486 22.555h3.412v7.415h8.176v-7.415h3.44v18.467h-3.44v-8.177h-8.176v8.177h-3.412V22.555ZM98.791 39.303h-.056c-.874 1.156-2.058 2.03-4.173 2.03-2.594 0-4.51-1.353-4.51-3.919 0-2.988 2.283-3.721 5.44-4.088 2.171-.282 3.271-.62 3.271-1.804 0-1.128-.79-1.917-2.368-1.917-1.748 0-2.622.817-2.707 2.142H90.7c.113-2.255 1.89-4.313 5.668-4.313 1.522 0 2.678.225 3.552.76 1.24.734 1.889 2.003 1.889 3.779v6.964c0 1.1.197 1.663.507 1.86v.226h-3.073c-.225-.31-.394-.818-.45-1.72Zm.057-3.101v-1.974c-.62.395-1.608.677-2.594.874-1.946.367-3.045.762-3.045 2.228 0 1.41 1.071 1.832 2.284 1.832 2.17.028 3.355-1.466 3.355-2.96ZM107.757 30.14h.084c.846-1.72 2.115-2.593 3.807-2.593.366 0 .62.028.845.113v2.819h-.112a2.978 2.978 0 0 0-.874-.113c-2.087-.028-3.637 1.382-3.637 3.947v6.654h-3.158V27.716h3.045v2.425ZM113.452 27.77h3.299l1.945 6.174c.564 1.776 1.128 4.455 1.128 4.455h.084s.508-2.65 1.1-4.455l2.002-6.175h3.214l-4.68 13.252h-3.44l-4.652-13.252ZM135.387 39.303h-.057c-.874 1.156-2.058 2.03-4.172 2.03-2.594 0-4.511-1.353-4.511-3.919 0-2.988 2.283-3.721 5.441-4.088 2.171-.282 3.271-.62 3.271-1.804 0-1.128-.79-1.917-2.369-1.917-1.748 0-2.622.817-2.706 2.142h-2.989c.113-2.255 1.889-4.313 5.667-4.313 1.523 0 2.679.225 3.553.76 1.24.734 1.889 2.003 1.889 3.779v6.964c0 1.1.197 1.663.507 1.86v.226h-3.045c-.254-.31-.423-.818-.479-1.72Zm.056-3.101v-1.974c-.62.395-1.607.677-2.594.874-1.945.367-3.045.762-3.045 2.228 0 1.41 1.072 1.832 2.284 1.832 2.171.028 3.355-1.466 3.355-2.96ZM144.352 30.14h.085c.846-1.72 2.115-2.593 3.806-2.593.367 0 .62.028.846.113v2.819h-.113a2.974 2.974 0 0 0-.874-.113c-2.086-.028-3.637 1.382-3.637 3.947v6.654h-3.158V27.716h3.045v2.425ZM150.076 34.424c0-4.229 2.368-6.992 5.751-6.992 1.833 0 3.214.874 4.06 2.256h.057a37.024 37.024 0 0 1-.113-2.763v-4.37h3.158v18.467h-3.045v-1.946h-.057c-.817 1.55-2.255 2.369-4.06 2.369-3.496 0-5.751-2.707-5.751-7.02Zm9.896 0c0-2.65-1.156-4.539-3.496-4.539-2.143 0-3.214 1.917-3.214 4.511 0 2.65 1.071 4.455 3.214 4.455 2.34 0 3.496-1.833 3.496-4.427ZM86.048 61.041h-.113c-1.184 2.002-3.186 2.96-5.47 2.96-2.594 0-4.765-.986-6.287-2.621-1.579-1.72-2.425-4.117-2.425-6.936 0-2.989.987-5.583 2.791-7.33 1.495-1.467 3.525-2.34 6.147-2.34 4.51 0 7.133 2.396 7.81 5.892h-3.468c-.508-1.72-1.833-2.989-4.286-2.989-3.75 0-5.498 2.96-5.498 6.767 0 3.947 2.171 6.71 5.498 6.71 3.101 0 4.737-2.115 4.765-4.455v-.225h-4.455v-2.678h7.754v9.81h-2.312l-.451-2.565ZM99.75 61.858h-.056c-.874 1.156-2.059 2.03-4.173 2.03-2.594 0-4.511-1.353-4.511-3.92 0-2.988 2.284-3.72 5.441-4.087 2.171-.282 3.27-.62 3.27-1.805 0-1.127-.789-1.917-2.367-1.917-1.748 0-2.623.818-2.707 2.143h-2.989c.113-2.256 1.89-4.314 5.667-4.314 1.523 0 2.679.226 3.553.761 1.24.734 1.889 2.002 1.889 3.779v6.963c0 1.1.197 1.664.507 1.861v.226h-3.045c-.253-.31-.45-.818-.479-1.72Zm.028-3.101v-1.974c-.62.395-1.607.677-2.594.874-1.945.367-3.044.761-3.044 2.227 0 1.41 1.07 1.833 2.283 1.833 2.171.028 3.355-1.466 3.355-2.96ZM105.191 61.18l5.272-6.484c.677-.761 1.918-1.945 1.918-1.945v-.085s-1.664.141-2.679.141h-4.032v-2.538h10.404v2.172l-5.244 6.484c-.733.846-2.115 2.115-2.115 2.115v.084s1.777-.113 2.876-.113h4.821v2.594h-11.221v-2.424ZM117.653 56.98c0-3.947 2.65-6.992 6.569-6.992 1.945 0 3.44.677 4.567 1.861 1.297 1.353 1.918 3.44 1.889 5.893h-9.896c.226 2.283 1.438 3.834 3.637 3.834 1.523 0 2.51-.648 2.933-1.748h3.073c-.649 2.368-2.791 4.144-6.034 4.144-4.201 0-6.738-3.073-6.738-6.992Zm3.186-1.212h6.597c-.113-2.17-1.297-3.496-3.214-3.496-2.058-.028-3.129 1.41-3.383 3.496ZM131.834 50.327h2.03v-4.23h3.102v4.23h2.65v2.17h-2.65v7.416c0 .958.507 1.24 1.409 1.24.31 0 .762-.056 1.015-.113h.141v2.453c-.507.113-1.24.198-2.086.198-2.143 0-3.609-.762-3.609-3.102v-8.12h-2.03v-2.142h.028ZM140.8 50.327h2.03v-4.23h3.101v4.23h2.651v2.17h-2.651v7.416c0 .958.508 1.24 1.41 1.24.31 0 .761-.056 1.015-.113h.141v2.453c-.508.113-1.241.198-2.086.198-2.143 0-3.609-.762-3.609-3.102v-8.12h-2.03v-2.142h.028ZM150.132 56.98c0-3.947 2.65-6.992 6.569-6.992 1.946 0 3.44.677 4.568 1.861 1.297 1.353 1.917 3.44 1.889 5.893h-9.896c.225 2.283 1.438 3.834 3.637 3.834 1.522 0 2.509-.648 2.932-1.748h3.073c-.648 2.368-2.791 4.144-6.033 4.144-4.201 0-6.739-3.073-6.739-6.992Zm3.186-1.212h6.597c-.112-2.17-1.296-3.496-3.214-3.496-2.058-.028-3.129 1.41-3.383 3.496Z"></path></g><path d="M60.307 3.383v56.924H3.383V3.383h56.924ZM63.69 0H0v63.69h63.69V0Z" fill="#A51C30"></path></g><defs><clipPath id="a"><path fill="#fff" d="M0 0h163.158v64H0z"></path></clipPath></defs></svg> 